<svg width="788" height="788" viewBox="0 0 788 788" fill="none" xmlns="http://www.w3.org/2000/svg">
<g clip-path="url(#clip0_2_4)">
<path d="M618.38 596.469C617.435 597.301 616.503 598.152 615.585 599.025C610.855 603.518 606.587 608.441 602.731 613.776H557.961C553.181 613.776 549.307 617.65 549.307 622.429V747.905C549.307 752.684 553.181 756.559 557.961 756.559H731.031C735.81 756.559 739.684 752.684 739.684 747.905V668.417L756.992 655.276V756.559C756.991 766.117 749.243 773.866 739.684 773.866H549.307C539.749 773.866 532 766.117 532 756.559V613.776C532 604.217 539.749 596.469 549.307 596.469H618.38Z" fill="currentColor"/>
<path d="M701.825 548.302C701.825 546.525 703.849 545.505 705.276 546.563L787.125 607.19C788.284 608.049 788.293 609.78 787.145 610.652L705.296 672.796C703.872 673.877 701.826 672.862 701.825 671.074V633.793C701.825 632.596 700.829 631.626 699.632 631.638C646.997 632.194 621.951 647.472 596.965 686.652C595.677 688.67 592.513 687.483 592.976 685.134C601.812 640.324 618.451 612.198 647.789 597.336C647.849 597.306 647.909 597.277 647.968 597.247C662.109 590.122 679.192 586.065 699.763 584.698C700.907 584.622 701.825 583.674 701.825 582.527V548.302Z" fill="currentColor"/>
<path fill-rule="evenodd" clip-rule="evenodd" d="M490 540C507.673 540 522 554.327 522 572V716C522 733.673 507.673 748 490 748H330L298 780V748C280.327 748 266 733.673 266 716V572C266 554.327 280.327 540 298 540H490ZM298 680V688H490V680H298ZM298 640V648H490V640H298ZM298 600V608H490V600H298Z" fill="currentColor"/>
<path d="M192 544.667C227.346 544.667 256 573.32 256 608.667C256 609.607 255.978 610.543 255.938 611.474C256.392 621.25 254.681 641.015 239.03 667.221C216.289 705.298 171.882 733.113 128 775.333C84.1178 733.113 39.711 705.298 16.9701 667.221C1.32579 641.027 -0.391008 621.268 0.0611979 611.487C0.0206528 610.552 0 609.612 0 608.667C0 573.321 28.654 544.667 64 544.667C98.0028 544.667 125.269 570.517 127.333 604H128.667C130.731 570.517 157.997 544.667 192 544.667Z" fill="currentColor"/>
<path fill-rule="evenodd" clip-rule="evenodd" d="M586.857 302.571C617.154 302.571 641.714 327.132 641.714 357.429V430.571C641.714 460.868 617.154 485.429 586.857 485.429C556.56 485.429 532 460.868 532 430.571V357.429C532 327.132 556.56 302.571 586.857 302.571ZM586.857 320.857C566.659 320.857 550.286 337.231 550.286 357.429V367.714C550.286 352.566 562.566 340.286 577.714 340.286C592.863 340.286 605.143 352.566 605.143 367.714V404.286C605.143 419.434 592.863 431.714 577.714 431.714C562.566 431.714 550.286 419.434 550.286 404.286V430.571C550.286 450.769 566.659 467.143 586.857 467.143C607.055 467.143 623.429 450.769 623.429 430.571V357.429C623.429 337.231 607.055 320.857 586.857 320.857Z" fill="currentColor"/>
<path fill-rule="evenodd" clip-rule="evenodd" d="M733.143 302.571C763.44 302.571 788 327.132 788 357.429V430.571C788 460.868 763.44 485.429 733.143 485.429C702.846 485.429 678.286 460.868 678.286 430.571V357.429C678.286 327.132 702.846 302.571 733.143 302.571ZM733.143 320.857C712.945 320.857 696.571 337.231 696.571 357.429V367.714C696.571 352.566 708.852 340.286 724 340.286C739.148 340.286 751.429 352.566 751.429 367.714V404.286C751.429 419.434 739.148 431.714 724 431.714C708.852 431.714 696.571 419.434 696.571 404.286V430.571C696.571 450.769 712.945 467.143 733.143 467.143C753.341 467.143 769.714 450.769 769.714 430.571V357.429C769.714 337.231 753.341 320.857 733.143 320.857Z" fill="currentColor"/>
<path fill-rule="evenodd" clip-rule="evenodd" d="M109.551 7.62939e-06C170.054 0.000150301 219.101 49.0479 219.101 109.551C219.101 134.753 210.589 157.967 196.285 176.477L251.897 232.09C257.367 237.56 257.367 246.428 251.897 251.897C246.428 257.367 237.56 257.367 232.09 251.897L176.477 196.285C157.967 210.589 134.753 219.101 109.551 219.101C49.0479 219.101 0.000142709 170.054 0 109.551C0 49.0479 49.0479 7.62939e-06 109.551 7.62939e-06ZM109.551 26.292C63.5686 26.292 26.292 63.5686 26.292 109.551C26.2921 155.533 63.5686 192.809 109.551 192.809C155.533 192.808 192.808 155.533 192.809 109.551C192.809 63.5687 155.533 26.2921 109.551 26.292Z" fill="currentColor"/>
<path fill-rule="evenodd" clip-rule="evenodd" d="M468.667 21.3333C482.599 21.3333 494.451 30.2383 498.844 42.6667H511.333C517.224 42.6667 522 47.4423 522 53.3333C522 59.2244 517.224 64 511.333 64H498.844C494.451 76.4284 482.599 85.3333 468.667 85.3333C454.734 85.3333 442.883 76.4284 438.49 64H276.667C270.776 64 266 59.2244 266 53.3333C266 47.4423 270.776 42.6667 276.667 42.6667H438.49C442.883 30.2383 454.734 21.3333 468.667 21.3333ZM468.667 37.3333C459.83 37.3333 452.667 44.4968 452.667 53.3333C452.667 62.1699 459.83 69.3333 468.667 69.3333C477.503 69.3333 484.667 62.1699 484.667 53.3333C484.667 44.4968 477.503 37.3333 468.667 37.3333Z" fill="currentColor"/>
<path fill-rule="evenodd" clip-rule="evenodd" d="M340.667 96C354.599 96 366.451 104.905 370.844 117.333H511.333C517.224 117.333 522 122.109 522 128C522 133.891 517.224 138.667 511.333 138.667H370.844C366.451 151.095 354.599 160 340.667 160C326.734 160 314.883 151.095 310.49 138.667H276.667C270.776 138.667 266 133.891 266 128C266 122.109 270.776 117.333 276.667 117.333H310.49C314.883 104.905 326.734 96 340.667 96ZM340.667 112C340.386 112 340.108 112.007 339.831 112.021C339.729 112.026 339.627 112.033 339.526 112.04C339.488 112.043 339.45 112.045 339.411 112.048C339.348 112.053 339.284 112.059 339.22 112.065C339.128 112.073 339.036 112.081 338.944 112.091C338.889 112.097 338.834 112.104 338.779 112.111C338.716 112.118 338.653 112.125 338.591 112.133C338.499 112.145 338.407 112.158 338.315 112.172C338.256 112.181 338.197 112.19 338.138 112.199C338.083 112.208 338.028 112.217 337.973 112.227C337.897 112.239 337.821 112.252 337.746 112.266C337.669 112.28 337.591 112.296 337.514 112.311C337.472 112.32 337.43 112.328 337.388 112.337C337.161 112.385 336.936 112.437 336.712 112.493C336.672 112.504 336.631 112.514 336.591 112.525C336.384 112.579 336.178 112.637 335.974 112.699C335.952 112.706 335.93 112.712 335.909 112.719L335.585 112.824C335.449 112.87 335.314 112.917 335.18 112.966C335.162 112.973 335.145 112.979 335.128 112.986C334.91 113.066 334.695 113.15 334.482 113.24C334.461 113.248 334.441 113.257 334.421 113.266C334.219 113.351 334.019 113.443 333.822 113.536C333.777 113.557 333.733 113.578 333.689 113.599C333.502 113.69 333.317 113.785 333.134 113.883C333.081 113.911 333.027 113.938 332.974 113.967C332.813 114.056 332.655 114.148 332.497 114.242C332.416 114.291 332.335 114.34 332.255 114.389C332.097 114.488 331.94 114.588 331.785 114.691C331.73 114.728 331.675 114.765 331.621 114.802C331.471 114.905 331.322 115.012 331.176 115.12C331.106 115.171 331.037 115.224 330.969 115.276C330.849 115.367 330.731 115.46 330.615 115.555C330.522 115.63 330.43 115.707 330.339 115.784C330.237 115.87 330.135 115.957 330.035 116.046C329.961 116.112 329.886 116.178 329.812 116.246C329.702 116.348 329.594 116.452 329.487 116.557C329.393 116.649 329.3 116.743 329.208 116.837C329.118 116.93 329.028 117.024 328.94 117.118C326.289 119.974 324.667 123.797 324.667 128C324.667 132.203 326.29 136.025 328.94 138.88C329.028 138.975 329.118 139.069 329.208 139.161C329.3 139.256 329.393 139.349 329.487 139.441C329.594 139.546 329.702 139.651 329.812 139.753C329.886 139.82 329.961 139.887 330.035 139.953C330.135 140.042 330.237 140.129 330.339 140.215C330.43 140.292 330.522 140.369 330.615 140.444C330.731 140.538 330.849 140.631 330.969 140.723C331.011 140.755 331.051 140.79 331.094 140.822L331.176 140.88C331.322 140.988 331.471 141.093 331.621 141.197C331.675 141.234 331.73 141.271 331.785 141.307C331.94 141.411 332.097 141.511 332.255 141.609C332.335 141.659 332.416 141.708 332.497 141.757C332.655 141.85 332.813 141.943 332.974 142.031C333.027 142.06 333.081 142.087 333.134 142.116C333.317 142.214 333.502 142.309 333.689 142.4C333.733 142.421 333.777 142.441 333.822 142.462C334.019 142.556 334.219 142.647 334.421 142.733C334.441 142.742 334.461 142.751 334.482 142.759C334.695 142.848 334.91 142.933 335.128 143.013C335.145 143.019 335.162 143.026 335.18 143.033C335.385 143.107 335.592 143.178 335.801 143.245C335.858 143.263 335.916 143.282 335.974 143.299C336.178 143.362 336.384 143.419 336.591 143.474C336.631 143.485 336.672 143.495 336.712 143.505C336.936 143.562 337.161 143.614 337.388 143.661C337.427 143.67 337.465 143.678 337.504 143.686C337.584 143.702 337.665 143.718 337.746 143.733C337.821 143.747 337.897 143.759 337.973 143.772C338.028 143.781 338.083 143.791 338.138 143.799C338.197 143.809 338.256 143.818 338.315 143.827C338.407 143.84 338.499 143.854 338.591 143.866C338.653 143.874 338.716 143.881 338.779 143.888C338.834 143.895 338.889 143.902 338.944 143.908C339.036 143.917 339.128 143.925 339.22 143.934C339.284 143.939 339.348 143.946 339.411 143.951C339.45 143.953 339.488 143.956 339.526 143.958C339.627 143.965 339.729 143.973 339.831 143.978C340.108 143.992 340.386 144 340.667 144C340.947 144 341.225 143.992 341.501 143.978C341.603 143.973 341.705 143.965 341.806 143.958C341.844 143.956 341.882 143.953 341.921 143.951C341.985 143.946 342.048 143.939 342.112 143.934C342.204 143.925 342.296 143.917 342.388 143.908C342.443 143.902 342.498 143.895 342.553 143.888C342.616 143.881 342.679 143.874 342.741 143.866C342.833 143.854 342.925 143.84 343.017 143.827C343.076 143.818 343.135 143.809 343.194 143.799C343.249 143.791 343.304 143.781 343.359 143.772C343.435 143.759 343.511 143.747 343.586 143.733C343.667 143.718 343.748 143.702 343.829 143.686C343.868 143.679 343.906 143.669 343.944 143.661C344.171 143.614 344.396 143.562 344.62 143.505C344.66 143.495 344.701 143.485 344.741 143.474C344.948 143.419 345.154 143.362 345.358 143.299C345.416 143.282 345.474 143.263 345.531 143.245C345.74 143.178 345.947 143.107 346.152 143.033C346.17 143.026 346.187 143.019 346.204 143.013C346.422 142.933 346.637 142.848 346.85 142.759C346.871 142.751 346.891 142.742 346.911 142.733C347.114 142.647 347.313 142.556 347.51 142.462C347.555 142.441 347.599 142.421 347.643 142.4C347.83 142.309 348.015 142.214 348.198 142.116C348.251 142.087 348.305 142.06 348.358 142.031C348.519 141.943 348.677 141.85 348.835 141.757C348.916 141.708 348.997 141.659 349.077 141.609C349.235 141.511 349.392 141.411 349.547 141.307C349.602 141.271 349.657 141.234 349.711 141.197C349.864 141.091 350.016 140.984 350.165 140.874C350.232 140.824 350.297 140.773 350.363 140.723C350.483 140.631 350.601 140.538 350.717 140.444C350.81 140.369 350.902 140.292 350.993 140.215C351.095 140.129 351.197 140.042 351.297 139.953C351.372 139.887 351.446 139.82 351.52 139.753C351.63 139.651 351.738 139.546 351.845 139.441C351.939 139.349 352.032 139.256 352.124 139.161C352.214 139.069 352.304 138.975 352.392 138.88C355.043 136.025 356.667 132.203 356.667 128C356.667 123.796 355.043 119.974 352.392 117.118C352.304 117.024 352.214 116.93 352.124 116.837C352.032 116.743 351.939 116.649 351.845 116.557C351.738 116.452 351.63 116.348 351.52 116.246C351.446 116.178 351.372 116.112 351.297 116.046C351.197 115.957 351.095 115.87 350.993 115.784C350.902 115.707 350.81 115.63 350.717 115.555C350.601 115.46 350.483 115.367 350.363 115.276C350.295 115.224 350.227 115.171 350.158 115.12C350.011 115.011 349.862 114.906 349.711 114.802C349.657 114.765 349.602 114.728 349.547 114.691C349.392 114.588 349.235 114.488 349.077 114.389C348.997 114.34 348.916 114.291 348.835 114.242C348.677 114.148 348.519 114.056 348.358 113.967C348.305 113.938 348.251 113.911 348.198 113.883C348.015 113.785 347.83 113.69 347.643 113.599C347.599 113.578 347.555 113.557 347.51 113.536C347.313 113.443 347.114 113.351 346.911 113.266C346.891 113.257 346.871 113.248 346.85 113.24C346.637 113.15 346.422 113.066 346.204 112.986C346.187 112.979 346.17 112.973 346.152 112.966C345.947 112.891 345.74 112.821 345.531 112.754C345.474 112.736 345.416 112.717 345.358 112.699C345.154 112.637 344.948 112.579 344.741 112.525C344.701 112.514 344.66 112.504 344.62 112.493C344.396 112.437 344.171 112.385 343.944 112.337C343.902 112.328 343.86 112.32 343.818 112.311C343.741 112.296 343.663 112.28 343.586 112.266C343.511 112.252 343.435 112.239 343.359 112.227C343.304 112.217 343.249 112.208 343.194 112.199C343.135 112.19 343.076 112.181 343.017 112.172C342.925 112.158 342.833 112.145 342.741 112.133C342.679 112.125 342.616 112.118 342.553 112.111C342.498 112.104 342.443 112.097 342.388 112.091C342.296 112.081 342.204 112.073 342.112 112.065C342.048 112.059 341.985 112.053 341.921 112.048C341.882 112.045 341.844 112.043 341.806 112.04C341.705 112.033 341.603 112.026 341.501 112.021C341.225 112.007 340.947 112 340.667 112Z" fill="currentColor"/>
<path fill-rule="evenodd" clip-rule="evenodd" d="M436.667 170.667C450.599 170.667 462.451 179.572 466.844 192H511.333C517.224 192 522 196.776 522 202.667C522 208.558 517.224 213.333 511.333 213.333H466.844C462.451 225.762 450.599 234.667 436.667 234.667C422.734 234.667 410.883 225.762 406.49 213.333H276.667C270.776 213.333 266 208.558 266 202.667C266 196.776 270.776 192 276.667 192H406.49C410.883 179.572 422.734 170.667 436.667 170.667ZM436.667 186.667C436.386 186.667 436.108 186.673 435.831 186.687C435.729 186.693 435.627 186.7 435.526 186.707C435.488 186.71 435.45 186.712 435.411 186.715C435.348 186.72 435.284 186.726 435.22 186.732C435.128 186.74 435.036 186.748 434.944 186.758C434.889 186.764 434.834 186.771 434.779 186.777C434.716 186.785 434.654 186.791 434.591 186.799C434.499 186.811 434.407 186.825 434.315 186.839C434.256 186.847 434.197 186.857 434.138 186.866C434.083 186.875 434.028 186.884 433.973 186.893C433.897 186.906 433.821 186.918 433.746 186.932C433.669 186.947 433.591 186.962 433.514 186.978C433.472 186.986 433.43 186.995 433.388 187.004C433.161 187.051 432.936 187.103 432.712 187.16C432.672 187.17 432.631 187.181 432.591 187.191C432.384 187.246 432.178 187.303 431.974 187.366C431.952 187.373 431.93 187.379 431.909 187.385L431.585 187.491C431.449 187.536 431.314 187.584 431.18 187.633C431.162 187.639 431.145 187.646 431.128 187.652C430.91 187.733 430.695 187.817 430.482 187.906C430.461 187.915 430.441 187.924 430.421 187.932C430.219 188.018 430.019 188.109 429.822 188.203C429.777 188.224 429.733 188.244 429.689 188.266C429.502 188.357 429.317 188.452 429.134 188.549C429.081 188.578 429.027 188.605 428.974 188.634C428.813 188.723 428.655 188.815 428.497 188.909C428.416 188.957 428.335 189.006 428.255 189.056C428.097 189.154 427.94 189.255 427.785 189.358C427.73 189.395 427.675 189.431 427.621 189.469C427.471 189.572 427.322 189.678 427.176 189.786C427.106 189.838 427.037 189.89 426.969 189.943C426.849 190.034 426.731 190.127 426.615 190.221C426.522 190.297 426.43 190.373 426.339 190.451C426.237 190.537 426.135 190.623 426.035 190.712C425.961 190.779 425.886 190.845 425.812 190.913C425.702 191.015 425.594 191.119 425.487 191.224C425.393 191.316 425.3 191.41 425.208 191.504C425.118 191.597 425.028 191.69 424.94 191.785C422.289 194.64 420.667 198.463 420.667 202.667C420.667 206.87 422.29 210.692 424.94 213.547C425.028 213.642 425.118 213.735 425.208 213.828C425.3 213.922 425.393 214.016 425.487 214.108C425.594 214.213 425.702 214.317 425.812 214.419C425.886 214.487 425.961 214.553 426.035 214.62C426.135 214.709 426.237 214.795 426.339 214.882C426.43 214.959 426.522 215.035 426.615 215.111C426.731 215.205 426.849 215.298 426.969 215.389C427.011 215.422 427.051 215.456 427.094 215.488L427.176 215.547C427.322 215.655 427.471 215.76 427.621 215.863C427.675 215.901 427.73 215.937 427.785 215.974C427.94 216.077 428.097 216.178 428.255 216.276C428.335 216.326 428.416 216.375 428.497 216.423C428.655 216.517 428.813 216.609 428.974 216.698C429.027 216.727 429.081 216.754 429.134 216.783C429.317 216.88 429.502 216.976 429.689 217.066C429.733 217.088 429.777 217.108 429.822 217.129C430.019 217.223 430.219 217.314 430.421 217.4C430.441 217.408 430.461 217.417 430.482 217.426C430.695 217.515 430.91 217.599 431.128 217.68C431.145 217.686 431.162 217.693 431.18 217.699C431.385 217.774 431.592 217.845 431.801 217.911C431.858 217.93 431.916 217.948 431.974 217.966C432.178 218.029 432.384 218.086 432.591 218.141C432.631 218.151 432.672 218.162 432.712 218.172C432.936 218.229 433.161 218.281 433.388 218.328C433.427 218.336 433.465 218.345 433.504 218.353C433.584 218.369 433.665 218.385 433.746 218.4C433.821 218.414 433.897 218.426 433.973 218.439C434.028 218.448 434.083 218.457 434.138 218.466C434.197 218.476 434.256 218.485 434.315 218.493C434.407 218.507 434.499 218.521 434.591 218.533C434.654 218.541 434.716 218.547 434.779 218.555C434.834 218.561 434.889 218.568 434.944 218.574C435.036 218.584 435.128 218.592 435.22 218.6C435.284 218.606 435.348 218.612 435.411 218.617C435.45 218.62 435.488 218.622 435.526 218.625C435.627 218.632 435.729 218.639 435.831 218.645C436.108 218.659 436.386 218.667 436.667 218.667C436.947 218.667 437.225 218.659 437.501 218.645C437.603 218.639 437.705 218.632 437.806 218.625C437.844 218.622 437.882 218.62 437.921 218.617C437.985 218.612 438.048 218.606 438.112 218.6C438.204 218.592 438.296 218.584 438.388 218.574C438.443 218.568 438.498 218.561 438.553 218.555C438.616 218.547 438.679 218.541 438.741 218.533C438.833 218.521 438.925 218.507 439.017 218.493C439.076 218.485 439.135 218.475 439.194 218.466C439.249 218.457 439.304 218.448 439.359 218.439C439.435 218.426 439.511 218.414 439.586 218.4C439.667 218.385 439.748 218.369 439.829 218.353C439.868 218.345 439.906 218.336 439.944 218.328C440.171 218.281 440.396 218.229 440.62 218.172C440.66 218.162 440.701 218.151 440.741 218.141C440.948 218.086 441.154 218.029 441.358 217.966C441.416 217.948 441.474 217.93 441.531 217.911C441.74 217.845 441.947 217.774 442.152 217.699C442.17 217.693 442.187 217.686 442.204 217.68C442.422 217.599 442.637 217.515 442.85 217.426C442.871 217.417 442.891 217.408 442.911 217.4C443.114 217.314 443.313 217.223 443.51 217.129C443.555 217.108 443.599 217.088 443.643 217.066C443.83 216.976 444.015 216.88 444.198 216.783C444.251 216.754 444.305 216.727 444.358 216.698C444.519 216.609 444.677 216.517 444.835 216.423C444.916 216.375 444.997 216.326 445.077 216.276C445.235 216.178 445.392 216.077 445.547 215.974C445.602 215.937 445.657 215.901 445.711 215.863C445.864 215.758 446.016 215.651 446.165 215.54C446.232 215.491 446.297 215.44 446.363 215.389C446.483 215.298 446.601 215.205 446.717 215.111C446.81 215.035 446.902 214.959 446.993 214.882C447.095 214.795 447.197 214.709 447.297 214.62C447.372 214.553 447.446 214.487 447.52 214.419C447.63 214.317 447.738 214.213 447.845 214.108C447.939 214.016 448.032 213.922 448.124 213.828C448.214 213.735 448.304 213.642 448.392 213.547C451.043 210.692 452.667 206.87 452.667 202.667C452.667 198.463 451.043 194.64 448.392 191.785C448.304 191.69 448.214 191.597 448.124 191.504C448.032 191.41 447.939 191.316 447.845 191.224C447.738 191.119 447.63 191.015 447.52 190.913C447.446 190.845 447.372 190.779 447.297 190.712C447.197 190.623 447.095 190.537 446.993 190.451C446.902 190.373 446.81 190.297 446.717 190.221C446.601 190.127 446.483 190.034 446.363 189.943C446.295 189.89 446.227 189.838 446.158 189.786C446.011 189.678 445.862 189.572 445.711 189.469C445.657 189.431 445.602 189.395 445.547 189.358C445.392 189.255 445.235 189.154 445.077 189.056C444.997 189.006 444.916 188.957 444.835 188.909C444.677 188.815 444.519 188.723 444.358 188.634C444.305 188.605 444.251 188.578 444.198 188.549C444.015 188.452 443.83 188.356 443.643 188.266C443.599 188.244 443.555 188.224 443.51 188.203C443.313 188.109 443.114 188.018 442.911 187.932C442.891 187.924 442.871 187.915 442.85 187.906C442.637 187.817 442.422 187.733 442.204 187.652C442.187 187.646 442.17 187.639 442.152 187.633C441.947 187.558 441.74 187.487 441.531 187.421C441.474 187.402 441.416 187.384 441.358 187.366C441.154 187.303 440.948 187.246 440.741 187.191C440.701 187.181 440.66 187.17 440.62 187.16C440.396 187.103 440.171 187.051 439.944 187.004C439.902 186.995 439.86 186.986 439.818 186.978C439.741 186.962 439.663 186.947 439.586 186.932C439.511 186.918 439.435 186.906 439.359 186.893C439.304 186.884 439.249 186.875 439.194 186.866C439.135 186.857 439.076 186.847 439.017 186.839C438.925 186.825 438.833 186.811 438.741 186.799C438.679 186.791 438.616 186.785 438.553 186.777C438.498 186.771 438.443 186.764 438.388 186.758C438.296 186.748 438.204 186.74 438.112 186.732C438.048 186.726 437.985 186.72 437.921 186.715C437.882 186.712 437.844 186.71 437.806 186.707C437.705 186.7 437.603 186.693 437.501 186.687C437.225 186.673 436.947 186.667 436.667 186.667Z" fill="currentColor"/>
<path d="M648.687 7.99988C654.935 1.75152 665.065 1.75152 671.313 7.99988L724.099 60.785L724 60.6854V44.6854C724 35.8491 731.164 28.6854 740 28.6854C748.836 28.6854 756 35.8491 756 44.6854V92.6864L788 124.686V236.686C788 245.523 780.837 252.686 772 252.686H708C699.163 252.686 692 245.523 692 236.686V172.686C692 163.85 684.836 156.686 676 156.686H644C635.164 156.686 628 163.85 628 172.686V236.686C628 245.523 620.837 252.686 612 252.686H548C539.163 252.686 532 245.523 532 236.686V124.686L648.687 7.99988Z" fill="currentColor"/>
<path fill-rule="evenodd" clip-rule="evenodd" d="M522 506C522 514.837 514.837 522 506 522H282C273.163 522 266 514.837 266 506V362H522V506ZM401.174 396.536C398.239 390.59 389.761 390.59 386.826 396.536L377.052 416.34C375.886 418.701 373.634 420.337 371.028 420.716L349.174 423.892C342.612 424.845 339.992 432.909 344.74 437.537L360.555 452.953C362.44 454.791 363.301 457.439 362.855 460.034L359.122 481.801C358.001 488.336 364.861 493.32 370.729 490.234L390.277 479.957C392.608 478.732 395.392 478.732 397.723 479.957L417.271 490.234C423.139 493.32 429.999 488.336 428.878 481.801L425.145 460.034C424.699 457.439 425.56 454.791 427.445 452.953L443.26 437.537C448.008 432.909 445.388 424.845 438.826 423.892L416.972 420.716C414.366 420.337 412.114 418.701 410.948 416.34L401.174 396.536Z" fill="currentColor"/>
<path d="M290 306C290 319.255 300.745 330 314 330H346C359.255 330 370 319.255 370 306V298H418V306C418 319.255 428.745 330 442 330H474C487.255 330 498 319.255 498 306V298H506C514.837 298 522 305.163 522 314V354H266V314C266 305.163 273.163 298 282 298H290V306Z" fill="currentColor"/>
<path d="M346 266C354.837 266 362 273.163 362 282V306C362 314.837 354.837 322 346 322H314C305.163 322 298 314.837 298 306V282C298 273.163 305.163 266 314 266H346Z" fill="currentColor"/>
<path d="M474 266C482.837 266 490 273.163 490 282V306C490 314.837 482.837 322 474 322H442C433.163 322 426 314.837 426 306V282C426 273.163 433.163 266 442 266H474Z" fill="currentColor"/>
<path d="M89.3383 491.217L23.0964 522.107H16.0174C4.53135 522.107 -3.21377 510.362 1.31068 499.805L27.3004 439.161L89.3383 491.217Z" fill="currentColor"/>
<path d="M249.09 519.277C246.546 521.046 243.434 522.107 239.984 522.107H43.2435L177.726 459.395L249.09 519.277Z" fill="currentColor"/>
<path d="M254.69 499.805C256.584 504.224 256.327 508.852 254.546 512.739L186.242 455.425L227.436 436.216L254.69 499.805Z" fill="currentColor"/>
<path d="M70.0047 402.89C72.2136 406.501 74.5049 409.99 76.8376 413.324C85.0672 425.086 94.1372 435.402 102.616 442.875C106.85 446.606 111.087 449.762 115.133 452.029C119.021 454.208 123.483 455.993 127.97 455.993C132.504 455.993 137 454.145 140.89 451.924C144.948 449.607 149.203 446.385 153.454 442.587C161.971 434.978 171.091 424.502 179.353 412.637C181.529 409.512 183.67 406.253 185.743 402.89H202.605C209.005 402.89 214.789 406.705 217.31 412.588L224.081 428.385L97.8538 487.245L30.8043 430.985L38.6898 412.588C41.211 406.705 46.9956 402.891 53.3956 402.89H70.0047Z" fill="currentColor"/>
<path fill-rule="evenodd" clip-rule="evenodd" d="M128.898 265.899C129.797 265.91 130.693 265.935 131.584 265.976C131.605 265.977 131.627 265.978 131.648 265.979C132.138 266.002 132.627 266.031 133.115 266.063C133.333 266.077 133.551 266.093 133.768 266.109C134.171 266.139 134.573 266.171 134.974 266.208C135.373 266.243 135.771 266.282 136.167 266.324C137.009 266.413 137.845 266.516 138.677 266.631C139.031 266.681 139.384 266.732 139.737 266.786C141.077 266.991 142.404 267.232 143.718 267.505C146.15 268.012 148.536 268.633 150.868 269.363C151.391 269.526 151.91 269.694 152.427 269.869C152.744 269.976 153.061 270.085 153.376 270.196C153.812 270.349 154.245 270.507 154.677 270.668C156.41 271.315 158.111 272.022 159.774 272.787C160.19 272.979 160.602 273.174 161.013 273.372C165.984 275.774 170.616 278.7 174.824 282.073C175.184 282.362 175.541 282.653 175.894 282.948C182.343 288.328 187.74 294.777 191.766 301.995C191.984 302.386 192.199 302.778 192.409 303.174C192.456 303.263 192.503 303.353 192.55 303.443C192.753 303.829 192.952 304.216 193.147 304.606C193.687 305.688 194.196 306.786 194.675 307.898C194.849 308.303 195.02 308.709 195.186 309.118C195.527 309.958 195.85 310.806 196.156 311.662C196.31 312.095 196.461 312.53 196.606 312.966C196.718 313.302 196.826 313.64 196.932 313.978C197.07 314.417 197.204 314.858 197.332 315.3C197.375 315.447 197.416 315.594 197.457 315.742C197.866 317.19 198.225 318.658 198.53 320.143C198.67 320.829 198.798 321.519 198.916 322.212C199.268 324.279 199.52 326.376 199.663 328.501C199.688 328.866 199.708 329.232 199.727 329.598C199.779 330.647 199.807 331.702 199.807 332.763C200.164 337.138 200.007 341.693 199.413 346.357C199.31 347.171 199.193 347.988 199.063 348.808C198.549 352.059 197.832 355.355 196.938 358.674C196.698 359.564 196.445 360.455 196.18 361.347C191.982 375.501 184.701 389.951 176.273 402.89C159.68 428.367 138.647 447.993 127.97 447.993L127.498 447.981C116.584 447.431 95.8112 428.152 79.4566 402.89H79.4586C65.439 381.235 54.6652 355.184 56.1339 332.763C56.1339 295.832 88.2962 265.893 127.97 265.893L128.898 265.899ZM127.998 310.384C111.548 310.385 98.2121 323.721 98.2121 340.171C98.2122 356.621 111.548 369.956 127.998 369.957C144.448 369.956 157.784 356.621 157.784 340.171C157.784 323.721 144.448 310.385 127.998 310.384Z" fill="currentColor"/>
</g>
<defs>
<clipPath id="clip0_2_4">
<rect width="788" height="788" fill="white"/>
</clipPath>
</defs>
</svg>
