<svg width="788" height="788" viewBox="0 0 788 788" fill="none" xmlns="http://www.w3.org/2000/svg">
<g clip-path="url(#clip0_59_161)">
<path d="M336.034 588C351.498 588 364.034 600.536 364.034 616C364.034 631.464 351.498 644 336.034 644C320.57 644 308.034 631.464 308.034 616C308.034 600.536 320.57 588 336.034 588Z" fill="#7F7F7F"/>
<path fill-rule="evenodd" clip-rule="evenodd" d="M498.034 532C510.859 532 521.334 542.06 522 554.719V765.28C521.335 777.94 510.86 788 498.034 788H290.034C276.779 788 266.034 777.255 266.034 764V747.379C266.023 747.382 266.011 747.384 266 747.387V732.002L266.034 731.971V556C266.034 542.745 276.779 532 290.034 532H498.034ZM306.034 548C292.779 548 282.034 558.745 282.034 572V717.051L331.822 670.623C334.104 668.496 337.601 668.489 339.889 670.517C340.139 670.687 340.378 670.879 340.606 671.092L373.363 701.637L439.23 640.216C440.381 639.143 441.841 638.61 443.3 638.604C445.139 638.226 447.128 638.713 448.606 640.092L506.034 693.643V572C506.034 558.745 495.289 548 482.034 548H306.034Z" fill="#7F7F7F"/>
<path d="M128 628C145.673 628 160 642.327 160 660C160 677.673 145.673 692 128 692C110.327 692 96 677.673 96 660C96 656.449 96.5786 653.033 97.6465 649.841C100.133 654.685 105.18 658 111 658C119.284 658 126 651.284 126 643C126 637.18 122.685 632.133 117.841 629.646C121.033 628.579 124.449 628 128 628Z" fill="#7F7F7F"/>
<path fill-rule="evenodd" clip-rule="evenodd" d="M128 588C191.728 588 255.453 639.676 255.993 659.745C255.997 659.83 256 659.915 256 660L255.995 660.233C255.995 660.24 255.993 660.247 255.993 660.254C255.455 680.322 191.729 732 128 732C64.2707 732 0.543738 680.322 0.00585938 660.254C0.00553898 660.247 0.005179 660.24 0.00488281 660.233L0 660C3.39488e-07 659.915 0.0018395 659.83 0.00585938 659.745C0.545814 639.676 64.2717 588 128 588ZM128 612C101.49 612 80 633.49 80 660C80 686.51 101.49 708 128 708C154.51 708 176 686.51 176 660C176 633.49 154.51 612 128 612Z" fill="#7F7F7F"/>
<path d="M692.51 305.731C688.392 301.613 688.392 294.937 692.51 290.818L711.151 272.177C719.388 263.941 732.741 263.941 740.977 272.177L781.802 313.002C790.038 321.238 790.038 334.591 781.802 342.828L763.16 361.469C759.042 365.587 752.366 365.587 748.247 361.469L692.51 305.731Z" fill="#7F7F7F"/>
<path d="M670.312 313.228C674.43 309.11 681.107 309.11 685.226 313.228L740.963 368.966C745.081 373.084 745.081 379.76 740.963 383.878L735.743 389.098C735.342 389.499 734.915 389.86 734.47 390.183C734.175 390.575 733.851 390.954 733.493 391.311L623.741 501.049C622.432 502.357 620.803 503.299 619.016 503.778L553.278 521.407C540.722 524.772 529.238 513.271 532.62 500.72L550.261 435.228C550.741 433.445 551.681 431.819 552.987 430.513L662.841 320.659C663.244 320.256 663.673 319.893 664.12 319.569C664.414 319.178 664.738 318.803 665.093 318.448L670.312 313.228Z" fill="#7F7F7F"/>
<path d="M269.435 327.596C274.015 323.016 281.441 323.016 286.021 327.596L394.06 435.635L501.979 327.717C506.559 323.138 513.985 323.138 518.565 327.717C523.145 332.297 523.145 339.724 518.565 344.305L402.461 460.407C399.105 463.763 394.223 464.656 390.05 463.094C388.402 462.534 386.852 461.599 385.537 460.285L269.435 344.181C264.855 339.601 264.855 332.176 269.435 327.596Z" fill="#7F7F7F"/>
<path d="M118.78 303.144C118.78 300.695 115.991 299.29 114.023 300.748L1.20606 384.314C-0.391053 385.497 -0.40389 387.883 1.17914 389.086L113.995 474.743C115.958 476.233 118.779 474.833 118.78 472.369V420.983C118.78 419.333 120.152 417.995 121.802 418.012C185.054 419.91 226.26 420.882 226.68 464.946C226.725 469.659 224.227 473.988 220.609 477.007C198.264 495.646 219.458 488.683 243.747 467.968C246.529 465.596 248.877 462.699 250.424 459.387C269.464 418.645 237.109 389.522 193.262 370.731C193.234 370.717 193.206 370.703 193.179 370.689C193.124 370.662 193.07 370.635 193.016 370.608C173.524 360.787 149.977 355.196 121.622 353.311C120.045 353.206 118.781 351.899 118.78 350.319V303.144Z" fill="#7F7F7F"/>
<path d="M660 0C668.837 0 676 7.16344 676 16V112H772C780.837 112 788 119.163 788 128C788 136.837 780.837 144 772 144H676V240C676 248.837 668.837 256 660 256C651.163 256 644 248.837 644 240V144H548C539.163 144 532 136.837 532 128C532 119.163 539.163 112 548 112H644V16C644 7.16344 651.163 0 660 0Z" fill="#7F7F7F"/>
<path fill-rule="evenodd" clip-rule="evenodd" d="M411.17 0C413.617 0.000312756 415.751 1.66639 416.344 4.04036L424.344 36.0404C424.479 36.5788 424.833 37.0582 425.357 37.2396C430.965 39.1768 436.336 41.6227 441.419 44.5156C441.628 44.6345 441.839 44.7532 442.048 44.8737C442.182 44.9516 442.316 45.0309 442.45 45.1094C447.548 48.0829 452.398 51.5396 456.921 55.4635C457.341 55.8271 457.934 55.8949 458.468 55.7422L490.18 46.6706C492.533 45.9975 495.043 47.0122 496.266 49.1315L513.436 78.8685C514.659 80.9878 514.283 83.6686 512.524 85.3698L488.812 108.298C488.413 108.684 488.174 109.231 488.279 109.776C489.414 115.645 489.98 121.563 490.008 127.454C490.01 127.636 490.012 127.818 490.012 128C490.012 128.181 490.01 128.363 490.008 128.544C489.98 134.436 489.414 140.355 488.279 146.224C488.174 146.769 488.413 147.316 488.812 147.702L512.524 170.63C514.283 172.331 514.659 175.012 513.436 177.132L496.266 206.868C495.043 208.988 492.533 210.004 490.18 209.331L458.468 200.258C457.934 200.105 457.341 200.173 456.921 200.536C452.398 204.46 447.548 207.916 442.45 210.889C442.316 210.968 442.182 211.047 442.048 211.125C441.839 211.246 441.628 211.364 441.419 211.483C436.336 214.376 430.966 216.823 425.357 218.76C424.833 218.942 424.479 219.421 424.344 219.96L416.344 251.96C415.751 254.334 413.617 256 411.17 256H376.831C374.384 256 372.25 254.334 371.657 251.96L363.657 219.96C363.522 219.421 363.167 218.942 362.643 218.76C356.947 216.793 351.495 214.302 346.342 211.349C346.247 211.295 346.151 211.241 346.057 211.186C345.814 211.046 345.574 210.904 345.333 210.762C340.314 207.817 335.536 204.405 331.077 200.536C330.658 200.173 330.066 200.105 329.532 200.258L297.82 209.329C295.467 210.002 292.957 208.988 291.734 206.868L274.564 177.132C273.341 175.012 273.717 172.331 275.476 170.63L299.188 147.702C299.587 147.316 299.826 146.769 299.721 146.224C298.589 140.37 298.021 134.467 297.99 128.591C297.989 128.451 297.985 128.31 297.985 128.169V127.831C297.985 127.69 297.989 127.549 297.99 127.408C298.021 121.532 298.589 115.629 299.721 109.776C299.826 109.231 299.587 108.684 299.188 108.298L275.476 85.3711C273.717 83.67 273.341 80.9878 274.564 78.8685L291.734 49.1315C292.957 47.0122 295.467 45.9976 297.82 46.6706L329.532 55.7422C330.066 55.8949 330.658 55.8271 331.077 55.4635C335.536 51.5952 340.314 48.182 345.333 45.237C345.574 45.095 345.814 44.9524 346.057 44.8125C346.151 44.758 346.247 44.7039 346.342 44.6497C351.494 41.6972 356.947 39.2071 362.643 37.2396C363.167 37.058 363.522 36.5788 363.657 36.0404L371.657 4.04036C372.25 1.66632 374.384 0.000144696 376.831 0H411.17ZM394.001 74.6667C364.545 74.6667 340.667 98.5448 340.667 128C340.667 157.455 364.545 181.333 394.001 181.333C423.456 181.333 447.334 157.455 447.334 128C447.334 98.5449 423.456 74.6669 394.001 74.6667Z" fill="#7F7F7F"/>
<path d="M162.909 34.9091C162.909 54.1888 147.28 69.8182 128 69.8182C108.72 69.8182 93.0909 54.1888 93.0909 34.9091C93.0909 15.6293 108.72 0 128 0C147.28 0 162.909 15.6293 162.909 34.9091Z" fill="#7F7F7F"/>
<path d="M162.909 128C162.909 147.28 147.28 162.909 128 162.909C108.72 162.909 93.0909 147.28 93.0909 128C93.0909 108.72 108.72 93.0909 128 93.0909C147.28 93.0909 162.909 108.72 162.909 128Z" fill="#7F7F7F"/>
<path d="M162.909 221.091C162.909 240.371 147.28 256 128 256C108.72 256 93.0909 240.371 93.0909 221.091C93.0909 201.811 108.72 186.182 128 186.182C147.28 186.182 162.909 201.811 162.909 221.091Z" fill="#7F7F7F"/>
</g>
<defs>
<clipPath id="clip0_59_161">
<rect width="788" height="788" fill="white"/>
</clipPath>
</defs>
</svg>
